<?xml version="1.0" encoding="utf-8"?>
<!-- Generator: Adobe Illustrator 22.0.1, SVG Export Plug-In . SVG Version: 6.00 Build 0)  -->
<svg version="1.1" id="Layer_1" xmlns="http://www.w3.org/2000/svg" xmlns:xlink="http://www.w3.org/1999/xlink" x="0px" y="0px"
	 viewBox="0 0 786 190" style="enable-background:new 0 0 786 190;" xml:space="preserve">
<style type="text/css">
	.st0{fill:#FF813F;}
	.st1{fill:#FFDD00;}
	.st2{fill:#FF9100;}
	.st3{fill:#FFFFFF;}
	.st4{fill:none;stroke:#000000;stroke-width:4.3189;}
	.st5{fill:none;stroke:#050505;stroke-width:4.3189;}
	.st6{fill:none;stroke:#EEEEEE;stroke-width:6.9583;}
	.st7{fill:#EEEEEE;}
</style>
<rect x="0" y="0" class="st0" width="786" height="190"/>
<g>
	<path id="Combined-Shape" class="st1" d="M191.4,39.8v-2.7c0-1.5-1.3-2.8-2.8-2.8h-0.9c-1.5,0-2.8,1.3-2.8,2.8v2.8h-2.8
		c-1.5,0-2.8,1.3-2.8,2.8v0.9c0,1.5,1.3,2.8,2.8,2.8h2.8v2.8c0,1.5,1.3,2.8,2.8,2.8h0.9c1.5,0,2.8-1.3,2.8-2.8v-2.8h2.8
		c1.5,0,2.8-1.3,2.8-2.8v-0.9c0-1.5-1.3-2.8-2.8-2.8L191.4,39.8L191.4,39.8z"/>
	<path id="Fill-1" class="st2" d="M131.8,54l-29.1-0.2l14.3,90.6h3.1h28.5h3.1L166,53.8L131.8,54z"/>
	<path id="Fill-2" class="st1" d="M131.8,54l-29.1-0.2l14.3,90.6h3.1h21.2h3.2l14.2-90.6L131.8,54z"/>
	<path id="Fill-3" class="st3" d="M94.4,53.8h74.9v-8.4H94.4V53.8z"/>
	<path id="Stroke-4" class="st4" d="M94.4,53.8h74.9v-8.4H94.4V53.8z"/>
	<path id="Fill-6" class="st3" d="M154.8,31.9h-17.9h-10.6h-17.8L103,44.5h23.3h10.6h23.3L154.8,31.9z"/>
	<g id="Group-11" transform="translate(3.455)">
		<path id="Stroke-7" class="st5" d="M151.3,31.9h-17.8h-10.6H105l-5.4,12.6h23.3h10.6h23.3L151.3,31.9z"/>
		<path id="Stroke-9" class="st4" d="M128.3,54l-34.2-0.2l14.2,90.6h3.2h33.7h3.2l14.2-90.6L128.3,54z"/>
	</g>
	<path id="Fill-12" class="st3" d="M167,79.4h-34.1h-2.4H96.2l6.4,36l29-0.3l29,0.3L167,79.4z"/>
	<path id="Stroke-13" class="st4" d="M167,79.4h-34.1h-2.4H96.2l6.4,36l29-0.3l29,0.3L167,79.4z"/>
	<circle id="Oval" class="st6" cx="69.8" cy="66.3" r="7.5"/>
	<circle id="Oval_1_" class="st7" cx="180.7" cy="98.2" r="5"/>
	<circle id="Oval_2_" class="st0" cx="86.8" cy="127" r="5"/>
	<g>
		<path class="st3" d="M215.8,66.5c0.4-1.4,0.9-2.3,1.8-2.7s1.8-0.7,2.7-0.6s1.7,0.4,2.4,0.9c0.7,0.5,1.1,1.2,1.1,1.8
			c0,0.3,0,0.5-0.1,0.8c-0.1,0.3-0.1,0.5-0.1,0.7c2.9-1,5.7-1.7,8.5-2.1c2.8-0.4,5.2-0.2,7.6,0.4c2.3,0.6,4.2,1.7,6,3.3
			c1.7,1.6,3,3.8,3.8,6.7c0.4,1.2,0.4,2.5,0.2,4.1c-0.2,1.5-0.5,3.2-1.1,4.7c-0.5,1.5-1.2,3-1.9,4.3c-0.7,1.4-1.4,2.3-2.3,2.9
			c1.7,0.5,3.2,1.4,4.5,2.7c1.3,1.3,2.3,2.7,3.1,4.3c0.7,1.6,1.3,3.4,1.4,5.3c0.2,1.9,0.1,3.9-0.4,5.8c-0.5,1.9-1.3,3.6-2.6,5.2
			c-1.4,1.6-3,3.1-4.9,4.3c-1.9,1.3-4.1,2.3-6.4,3.2c-2.3,0.8-4.8,1.4-7.1,1.7c-2.4,0.3-4.8,0.3-7.1,0c-2.3-0.3-4.5-1-6.3-2
			c-0.6,1-1.4,1.7-2.2,2.1c-0.8,0.4-1.6,0.5-2.3,0.4s-1.4-0.5-2-1.3c-0.5-0.7-0.9-1.7-1.1-3c0.5-4.2,0.8-8.6,1.3-13.2
			c0.5-4.6,0.8-9.2,1.3-13.9c0.5-4.7,0.8-9.3,1.2-13.8C215.1,75.2,215.5,70.8,215.8,66.5L215.8,66.5z M219.2,115.4
			c1.4,0.9,2.9,1.5,4.8,1.9c1.9,0.3,3.8,0.4,5.9,0.1c2-0.3,4-0.7,5.9-1.5c2-0.7,3.7-1.7,5.2-2.9c1.4-1.2,2.6-2.6,3.5-4.2
			c0.8-1.6,1.2-3.4,0.9-5.4c-0.1-0.7-0.4-1.4-0.8-2.1c-0.5-0.6-0.9-1.3-1.5-1.8c-1.2-1-2.7-1.6-4.6-1.9c-2-0.3-4.1-0.3-6.2-0.1
			c-2.2,0.2-4.3,0.5-6.4,1.1c-2.1,0.5-3.8,1-5.1,1.4L219.2,115.4L219.2,115.4z M221.4,90.8c0.4,0,1,0,2.1-0.1
			c1.1-0.1,2.3-0.2,3.7-0.4c1.4-0.2,2.9-0.5,4.5-0.9c1.5-0.4,3.1-0.9,4.4-1.6c1.4-0.7,2.5-1.5,3.5-2.5c1-1,1.5-2.3,1.7-3.7
			c0.3-1.8,0.1-3.3-0.5-4.5c-0.5-1.2-1.3-2.1-2.3-2.8c-1.1-0.6-2.3-1-3.7-1.2c-1.4-0.2-2.8-0.1-4.2,0.1c-1.4,0.2-2.9,0.5-4.2,1
			s-2.6,1-3.6,1.6L221.4,90.8L221.4,90.8z M258.7,85.5c0.6-1.2,1.4-2,2.3-2.4s1.8-0.5,2.7-0.4s1.6,0.7,2.3,1.5
			c0.6,0.8,0.9,1.9,0.9,3.2c-0.2,0.5-0.4,1.7-0.8,3.4c-0.4,1.7-0.8,3.6-1.3,5.9c-0.5,2.3-0.9,4.5-1.3,7c-0.5,2.4-0.7,4.8-0.8,6.8
			c-0.2,2.1-0.1,3.8,0.1,5.2c0.2,1.4,0.7,2.2,1.4,2.3c1.4,0.3,2.6-0.3,3.8-1.5c1.2-1.3,2.3-3,3.2-5c1-2.1,1.9-4.4,2.7-7
			c0.8-2.6,1.5-5,2.1-7.5c0.6-2.3,1.1-4.5,1.4-6.3c0.4-1.8,0.6-3.1,0.8-3.7c0.4-1.2,0.7-2.2,1.3-2.9s1.4-1.4,2.5-1.8
			c1.6-0.2,2.9,0.2,3.9,1c0.9,0.9,1.4,2.2,1.4,3.8c-0.4,1.8-0.8,3.8-1.3,5.9c-0.5,2.1-0.9,4.1-1.4,6.1c-0.5,2.1-0.8,4.1-1.1,5.9
			c-0.3,1.9-0.5,3.6-0.5,5.1c-0.1,1.5,0,2.8,0.2,3.8s0.6,1.7,1.3,2c1.5,0.3,2.9-0.5,4.1-2.3c1.2-1.8,2.5-4.7,3.9-8.7
			c0.5-1,1.1-1.7,1.9-1.9c0.8-0.3,1.6-0.2,2.3,0.2s1.3,1,1.7,1.9c0.4,0.9,0.4,2,0,3.2c-0.3,0.8-0.6,1.7-1.1,2.8s-0.9,2.2-1.5,3.2
			c-0.6,1.2-1.3,2.3-2,3.4c-0.7,1.2-1.4,2.2-2.3,3.1c-1.2,1.4-2.5,2.4-4,3c-1.4,0.6-2.9,0.8-4.3,0.6c-1.4-0.2-2.8-0.8-4.1-1.8
			c-1.3-1-2.3-2.3-3.1-4.1c-0.8,1.3-1.7,2.3-2.6,3.4c-0.9,1-1.8,1.9-2.9,2.7c-1.1,0.7-2.3,1.3-3.5,1.6c-1.3,0.4-2.8,0.5-4.5,0.4
			c-1.7-0.1-3.1-0.5-4.2-1.4c-1.1-0.8-2-1.9-2.6-3.2c-0.6-1.4-1-2.8-1.3-4.3c-0.3-1.5-0.4-3.2-0.4-4.8c0-1.6,0.1-3.2,0.2-4.5
			c0.1-1.4,0.2-2.6,0.4-3.6c0.2-1.3,0.4-2.8,0.6-4.4c0.3-1.7,0.6-3.4,1-5.2c0.4-1.8,0.7-3.5,1.1-5.1
			C258.2,88.2,258.4,86.8,258.7,85.5L258.7,85.5z"/>
		<path class="st3" d="M296.1,85.5c0.5-1.2,1.3-1.9,2.3-2.2c1.1-0.4,2.1-0.4,3.1,0c1,0.3,1.8,0.9,2.3,1.8s0.5,2.1,0,3.4
			c-0.4,1.2-0.8,2.5-1.2,4.1c-0.5,1.6-0.8,3.4-1.2,5.2s-0.6,3.7-0.8,5.5c-0.2,1.9-0.3,3.6-0.2,5.1c0.1,1.5,0.3,2.9,0.6,3.9
			s1,1.7,1.8,1.9c1.8,0.1,3.5-0.3,5.1-1.1c1.5-0.8,3.1-2,4.4-3.4c1.4-1.4,2.6-3.2,3.7-5c1.2-1.9,2.2-3.8,3.1-5.9
			c0.9-2,1.7-4,2.4-5.9c0.7-1.9,1.4-3.7,2-5.2c0.6-1.2,1.4-2,2.3-2.4s1.8-0.5,2.7-0.4s1.6,0.7,2.3,1.5s0.9,1.9,0.9,3.2
			c-0.8,2.5-1.5,5-2,7.7s-0.7,5.1-0.9,7.7c-0.1,1.8-0.1,3.5-0.1,5.3c0,1.7,0.1,3.3,0.4,4.9c0.5-0.3,1.3-0.7,2.2-1.4s1.9-1.4,2.9-2.2
			c1-0.8,2-1.8,2.9-2.8c0.9-1,1.7-2.1,2.3-3.2c0.9-1.2,1.9-1.6,2.8-1.5s1.7,0.5,2.3,1.2c0.6,0.7,1,1.5,1.2,2.5c0.2,1,0,1.8-0.5,2.5
			c-1.7,2.9-3.9,5.6-6.4,8.2c-2.6,2.6-5.9,4.7-9.9,6.4c0.2,2,0.2,4.3,0,6.9s-0.5,5.2-1,7.9c-0.5,2.7-1.3,5.2-2.2,7.7
			c-0.9,2.4-2.1,4.6-3.5,6.3c-1.4,1.7-3.2,3-5,3.7s-4.1,0.7-6.7-0.1c-2.4-0.7-4.2-2-5.3-3.7c-1.1-1.7-1.6-3.8-1.6-6.1
			c0-2.3,0.5-4.9,1.3-7.5c0.9-2.7,2.2-5.3,3.7-7.9c1.5-2.6,3.4-5,5.5-7.4c2.1-2.3,4.3-4.2,6.7-5.9c0.1-1.2,0.1-2.2,0.1-3.2
			c0-1,0-2,0.1-3.1c-1.2,1.5-2.5,3-4.1,4.3c-1.5,1.4-3.2,2.6-5.1,3.6c-1.8,1-3.8,1.7-5.8,2.1c-2,0.4-4.1,0.3-6.2-0.3
			c-2-0.5-3.5-1.6-4.7-3.1c-1.2-1.5-2-3.3-2.5-5.4c-0.5-2.1-0.7-4.4-0.7-6.9c0.1-2.5,0.3-5,0.6-7.7c0.4-2.5,0.9-5,1.6-7.5
			C294.6,89.6,295.3,87.4,296.1,85.5L296.1,85.5z M320.8,129.8c-1.1,0.9-2.1,2-3.1,3.3s-1.9,2.7-2.6,4.2c-0.8,1.4-1.4,2.9-2,4.4
			c-0.5,1.4-0.9,2.8-1.1,4c-0.2,1.2-0.2,2.2,0,3c0.2,0.8,0.6,1.3,1.4,1.4c0.9,0.2,1.7-0.2,2.5-1.1c0.8-0.9,1.4-2,2.1-3.4
			s1.2-3,1.6-4.7s0.8-3.3,1.1-4.9c0.3-1.5,0.4-2.9,0.5-4.1C321.2,130.8,321.1,130.1,320.8,129.8L320.8,129.8z M358.5,122.5
			c0.6-4.2,1.2-8,1.4-11.3c0.3-3.2,0.5-6,0.5-8.5s0-4.5-0.1-6.1c-0.1-1.7-0.3-3.1-0.5-4.2c-0.2-1.2-0.4-2.2-0.6-2.9
			c-0.2-0.7-0.4-1.4-0.4-1.9c-0.1-0.7,0-1.4,0.2-1.9s0.5-1,0.9-1.4s0.9-0.6,1.4-0.9c0.5-0.2,1-0.4,1.5-0.4c1,0,1.8,0.2,2.4,0.5
			c0.5,0.4,1,0.8,1.3,1.4s0.5,1.4,0.6,2.3c0.1,0.9,0.2,2,0.4,3.2c0.6-1,1.4-2.1,2.1-3.2c0.8-1.1,1.7-2,2.7-2.9
			c1-0.8,2.1-1.5,3.2-2.1c1.2-0.5,2.5-0.8,3.9-0.8c1.4,0,2.9,0.3,4.1,0.8c1.4,0.5,2.5,1.3,3.6,2.3c1.1,1,2,2.1,2.7,3.4
			c0.7,1.3,1.3,2.7,1.6,4.2c1-2,2.2-3.9,3.4-5.7c1.3-1.8,2.9-3.2,5-4.1c2.1-1,4.1-1.3,5.9-0.8s3.4,1.3,4.9,2.6
			c1.4,1.3,2.5,2.9,3.2,4.9c0.8,2,1.2,4,1.2,6.1c0,2.4-0.2,5-0.5,7.7c-0.3,2.7-0.5,5.1-0.8,7.5c-0.3,2.3-0.4,4.2-0.3,5.8
			s0.5,2.4,1.3,2.6c1.3,0.4,2.5-0.1,3.7-1.2c1.2-1.1,2.3-2.4,3.2-4.1s1.8-3.2,2.5-4.9c0.7-1.7,1.3-3,1.7-3.9
			c0.4-0.8,0.9-1.3,1.6-1.4s1.4-0.2,2.1,0.2c0.7,0.3,1.3,0.8,1.7,1.5c0.5,0.7,0.6,1.6,0.5,2.6c-0.5,2.3-1.4,4.6-2.3,6.9
			s-2.3,4.4-3.7,6.2c-1.4,1.9-3.2,3.3-5.3,4.5c-2.1,1.2-4.4,1.7-7.1,1.7c-1.8,0-3.2-0.5-4.4-1.4c-1.2-1-2.1-2.2-2.7-3.5
			c-0.6-1.4-1.1-2.9-1.4-4.4s-0.4-2.9-0.4-4.1c0-1.7,0.1-3.3,0.4-4.9c0.2-1.5,0.5-3.1,0.7-4.5c0.3-1.4,0.5-2.9,0.7-4.3
			c0.2-1.4,0.4-2.7,0.4-4.1c0-1.8-0.2-3.2-0.6-4.2c-0.4-1-1-1.5-1.7-1.5c-1.4,0-2.8,0.9-4.1,2.6c-1.3,1.7-2.4,4-3.5,6.7
			c-1.1,2.7-2,5.8-2.8,9.2c-0.8,3.4-1.4,6.8-2,10.2c-0.2,1.2-0.6,2-1.5,2.5c-0.9,0.5-1.8,0.7-2.9,0.5c-1-0.1-1.9-0.5-2.8-1.2
			c-0.8-0.6-1.3-1.5-1.3-2.6c0.1-0.6,0.3-1.7,0.5-3.3c0.2-1.6,0.4-3.4,0.5-5.5c0.2-2.1,0.3-4.2,0.3-6.5c0-2.3-0.1-4.3-0.5-6.1
			c-0.3-1.9-0.8-3.4-1.5-4.6c-0.7-1.2-1.7-1.8-3.1-1.8c-1.1,0-2.1,0.5-3.1,1.5s-2,2.3-2.9,4.1c-0.9,1.7-1.7,3.6-2.5,5.9
			c-0.7,2.3-1.4,4.5-2,6.9c-0.6,2.4-1.1,5-1.4,7.4c-0.4,2.5-0.6,4.9-0.8,7c-0.2,1.2-0.7,2-1.6,2.4c-1,0.5-2,0.6-3.1,0.5
			c-1.1-0.1-2.1-0.5-2.9-1.1C358.8,124.3,358.4,123.5,358.5,122.5L358.5,122.5z"/>
		<path class="st3" d="M449.3,91.2c-0.1,2.3-0.5,4.7-1.3,7.1c-0.7,2.3-1.9,4.5-3.3,6.4c-1.4,1.9-3.2,3.4-5.3,4.6
			c-2.1,1.2-4.5,1.6-7.1,1.4c0.1,1.4,0.2,2.9,0.5,4.2c0.3,1.4,0.7,2.5,1.4,3.5c0.6,1,1.5,1.6,2.6,2.1c1.1,0.4,2.4,0.4,4.1-0.2
			c1.6-0.5,3.2-1.3,4.7-2.3c1.5-1.1,2.9-2.3,4.1-3.7c1.2-1.4,2.3-2.9,3.1-4.5c0.8-1.5,1.4-3.2,1.8-4.6c0.2-0.8,0.6-1.3,1.4-1.4
			s1.4-0.2,2.3,0.1c0.8,0.3,1.4,0.6,2,1.3c0.5,0.6,0.7,1.3,0.5,2c-1,2.7-2.1,5.1-3.1,7.3c-1,2.1-2.2,4-3.3,5.6
			c-1.3,1.6-2.6,3-4.1,4.1c-1.5,1.2-3.3,2.1-5.4,2.8c-2.8,1-5.3,1.4-7.7,1.3c-2.3-0.1-4.4-0.7-6.1-1.9c-1.7-1.2-3.2-2.7-4.1-4.8
			c-1-2.1-1.6-4.6-1.7-7.6c-0.1-1.4-0.1-3.2-0.1-5.1c0-2,0.2-4.1,0.4-6.3c0.2-2.3,0.6-4.4,1.2-6.7s1.3-4.3,2.1-6.3
			c0.9-2,2-3.7,3.3-5.1c1.4-1.4,3-2.5,4.9-3.2c1.6-0.5,3.2-0.8,4.7-0.6c1.5,0.2,2.9,0.6,4.1,1.4c1.2,0.8,2.2,2.1,2.9,3.6
			C449,87.2,449.4,89,449.3,91.2L449.3,91.2z M440.4,89.4c-0.6-0.5-1.3-0.5-2-0.1c-0.6,0.4-1.3,0.9-1.8,1.8
			c-0.5,0.8-1.1,1.8-1.4,2.9c-0.5,1.2-0.8,2.3-1.1,3.5c-0.3,1.2-0.5,2.3-0.6,3.4c-0.2,1.1-0.2,2-0.1,2.6c2.2-0.5,3.9-1.4,5.1-2.7
			c1.3-1.4,2.2-2.8,2.6-4.4c0.5-1.5,0.6-3,0.5-4.4C441.5,90.7,441.1,89.8,440.4,89.4L440.4,89.4z M484.6,123.8
			c-2.9,0-5.1-0.8-6.8-2.4c-1.7-1.6-2.8-3.7-3.5-6.1c-0.6-2.5-0.9-5.3-0.6-8.4s0.9-6,2-9c1-3,2.3-5.7,4.1-8.1
			c1.7-2.5,3.6-4.4,5.8-5.7c2.2-1.4,4.5-1.9,7.1-1.7c2.5,0.2,5.2,1.4,8,3.9c0.3-0.8,0.9-1.4,1.8-1.5s1.9-0.1,2.8,0.3
			s1.7,0.9,2.3,1.8c0.6,0.8,0.7,1.8,0.4,3c-0.4,1.4-0.7,2.9-1.3,4.9c-0.5,2-1,3.9-1.5,5.9c-0.5,2.1-0.9,4.1-1.3,6.2
			c-0.4,2.1-0.5,4-0.5,5.7c0,1.7,0.3,3.1,0.7,4.1c0.5,1.1,1.3,1.7,2.4,1.8c1.4,0.1,2.7-0.4,4-1.4s2.3-2.3,3.3-4c1-1.6,1.8-3.3,2.4-5
			c0.6-1.8,1.1-3.3,1.3-4.7c0.4-1.3,0.9-2,1.6-2.2c0.8-0.2,1.5-0.1,2.3,0.3s1.4,1,1.8,1.7c0.5,0.8,0.5,1.5,0.2,2.3
			c-0.4,1.9-1,4.1-2,6.5c-1,2.4-2.3,4.7-3.8,6.9c-1.5,2.2-3.2,4.1-5.2,5.5c-1.9,1.5-4,2.3-6.2,2.3c-1,0-2-0.2-3.1-0.5
			c-1.1-0.4-2.1-0.9-3.1-1.6s-1.8-1.7-2.6-2.9c-0.7-1.2-1.3-2.6-1.6-4.3c-0.5,0.5-1,1.2-1.8,2c-0.7,0.8-1.6,1.5-2.6,2.3
			c-1,0.7-2.1,1.4-3.2,1.8C487,123.5,485.8,123.8,484.6,123.8z M484.5,115c1.5,0.2,2.8-0.2,4-1.1c1.2-0.8,2.2-2,3.1-3.4
			c0.9-1.4,1.6-3.1,2.3-4.9c0.6-1.8,1.1-3.5,1.5-5.2c0.4-1.7,0.7-3.2,1-4.6c0.3-1.4,0.4-2.3,0.5-3c-1.5-1.3-2.9-1.9-4.2-2
			s-2.5,0.4-3.6,1.1c-1.1,0.8-2.1,1.9-2.9,3.2c-0.8,1.4-1.5,3-2.2,4.6c-0.6,1.7-1,3.3-1.3,5.1s-0.5,3.3-0.4,4.8
			c0,1.4,0.3,2.6,0.6,3.6C483.1,114.3,483.7,114.9,484.5,115z M559.7,97.4c-0.1,0-0.2,0-0.2-0.1c-0.5,1.2-1.2,2-2,2.4
			c-0.8,0.5-1.6,0.7-2.5,0.6c-0.8-0.1-1.6-0.5-2.3-1.3c-0.7-0.7-1.2-1.7-1.4-3c0-0.6,0.1-1.4,0.2-2.3c0.2-0.9,0.3-1.8,0.4-2.7
			c0.1-0.9,0-1.6-0.1-2.3c-0.2-0.6-0.5-1-1.2-1.1c-1.1,0.6-2,1.6-2.8,3.1c-0.8,1.4-1.4,3.1-2,4.9c-0.5,1.8-0.9,3.7-1.1,5.8
			c-0.2,2-0.3,4-0.2,5.9c0.1,1.9,0.3,3.5,0.7,5c0.4,1.4,1,2.5,1.7,3.2c0.9,0.9,2,1.4,3.1,1.6c1.2,0.2,2.3,0.2,3.5-0.1
			c1-0.2,2.3-0.5,3.5-1.1c1.4-0.5,2.6-1.3,4-2.3c1.4-1,2.6-2.3,3.9-3.8c1.3-1.5,2.3-3.5,3.2-5.9c0.4-0.7,0.9-1.2,1.7-1.3
			c0.8-0.2,1.6-0.1,2.4,0.3c0.8,0.3,1.4,0.8,1.9,1.5c0.5,0.7,0.5,1.5,0.2,2.6c-0.9,2.3-2.1,4.1-3.5,5.9c-1.4,1.8-2.9,3.2-4.5,4.6
			c-1.6,1.4-3.2,2.4-5,3.4c-1.7,0.9-3.4,1.7-5,2.3c-1.3,0.5-2.6,0.8-4.1,1.1s-2.8,0.4-4.2,0.2c-1.4-0.2-2.8-0.5-4.1-1.1
			c-1.4-0.6-2.5-1.5-3.5-2.8c-1.3-1.4-2.2-3.2-2.9-5.4c-0.7-2.2-1.1-4.5-1.3-6.9c-0.2-2.4-0.1-5,0.2-7.6c0.3-2.6,0.8-5,1.5-7.4
			c0.7-2.3,1.7-4.4,2.8-6.3c1.2-1.9,2.5-3.4,4-4.5c2.4-1.6,4.9-2.4,7.1-2.3c2.3,0.1,4.1,1.2,5.5,3.2c1.1,0.2,2,0.7,2.6,1.6
			c0.6,0.9,0.8,2,0.5,3.2L559.7,97.4L559.7,97.4z"/>
		<path class="st3" d="M590,82.5c2.2-0.7,4.1-0.8,5.7-0.5s3,1.3,4.1,2.4c1.1,1.3,2,2.7,2.6,4.5c0.6,1.8,1.1,3.7,1.3,5.8
			c0.1,0.9,0.2,2,0.2,3.1c0,1.2,0,2.3-0.1,3.4c-0.1,1.2-0.2,2.3-0.3,3.2c-0.1,1-0.3,2-0.5,2.8c1.2-0.1,2.2-0.2,3.1-0.5
			s1.7-0.5,2.4-0.9c0.7-0.4,1.4-0.7,2.2-1.2c0.7-0.5,1.4-0.8,2.1-1.2c0.9-0.5,1.6-0.5,2.3-0.2c0.6,0.4,1,0.9,1.2,1.6
			s0.3,1.4,0.2,2.3s-0.5,1.4-1,2c-2.3,2.1-4.7,3.6-7.4,4.5s-5.4,1.4-8.2,1.4c-1.8,3.2-4.1,5.7-7,7.4c-2.9,1.7-6,2.5-9.4,2.6
			c-3.2,0.1-5.8-0.6-7.9-1.9c-2.2-1.4-3.9-3.1-5.1-5.1c-1.3-2.1-2.1-4.5-2.5-7.2c-0.4-2.7-0.4-5.4,0-8.2c0.4-2.8,1.2-5.4,2.4-8
			c1.2-2.6,2.7-4.9,4.6-6.8c1.9-1.9,4.1-3.4,6.7-4.4C583.8,82.4,586.7,82,590,82.5L590,82.5z M584.8,90.6c-1.5,0.4-2.9,1.2-4.1,2.5
			c-1.3,1.4-2.3,3-3.2,4.8c-0.9,1.9-1.5,3.9-1.9,6c-0.4,2.2-0.5,4.2-0.1,6.1c0.3,1.9,1,3.6,2.2,5c1.2,1.4,2.8,2.3,4.9,2.8
			c0.7,0.2,1.6,0.1,2.5-0.2c0.9-0.3,1.9-0.7,2.8-1.3s1.7-1.3,2.4-2c0.7-0.8,1.3-1.5,1.6-2.3c-1.4-0.8-2.4-1.8-3.3-2.9
			c-0.9-1.2-1.7-2.3-2.3-3.7c-1-2.3-1.6-4.7-1.8-7.2C584.1,95.4,584.3,93,584.8,90.6L584.8,90.6z M593.6,90.9
			c-1.4,0.8-2.1,1.9-2.3,3.3c-0.2,1.4,0,2.9,0.4,4.4c0.5,1.4,1,2.8,1.8,4c0.7,1.2,1.4,1.9,1.9,2.2c0.3-0.3,0.5-0.8,0.6-1.6
			c0.2-0.9,0.3-1.9,0.4-3c0.1-1.2,0-2.3-0.1-3.5c-0.1-1.3-0.3-2.3-0.5-3.2c-0.3-0.9-0.5-1.6-0.9-2.2
			C594.6,90.8,594.1,90.7,593.6,90.9L593.6,90.9z"/>
		<path class="st3" d="M612.4,66.1c0.6-1.2,1.5-1.9,2.5-2.3c1-0.4,2-0.4,2.9-0.1c0.9,0.3,1.6,0.8,2.2,1.5c0.5,0.7,0.7,1.6,0.5,2.6
			l-4.4,46.8c2-0.2,4-0.5,5.9-1.3c1.9-0.7,3.8-1.5,5.6-2.6s3.5-2.3,5.1-3.6c1.6-1.4,3.2-2.6,4.5-4.1c0.7-0.4,1.4-0.3,2,0.5
			c0.6,0.6,1,1.5,1.3,2.5s0.3,2.1,0.2,3.2c-0.2,1.1-0.6,1.9-1.4,2.3c-1,0.7-2.1,1.6-3.3,2.5s-2.4,1.8-3.7,2.6
			c-1.3,0.8-2.4,1.5-3.6,2.3c-1.2,0.6-2.2,1.1-3.1,1.4c1.4,1.5,2.5,3.5,3.3,5.9c0.8,2.4,1.3,5,1.4,7.7c0.2,2.7,0.1,5.4-0.4,8.1
			c-0.5,2.7-1.2,5-2.3,7.1c-1.1,2.1-2.5,3.7-4.2,4.9s-3.8,1.6-6.2,1.3c-2.3-0.3-4.1-1.2-5.5-2.6c-1.4-1.4-2.4-3.2-3.2-5.3
			c-0.7-2.1-1.3-4.4-1.4-7c-0.3-2.5-0.4-5.1-0.3-7.7s0.2-5,0.4-7.2c0.2-2.3,0.3-4.2,0.4-5.8c0-0.9,0.1-2.6,0.3-5
			c0.2-2.5,0.5-5.4,0.6-8.8c0.3-3.4,0.5-7,0.9-10.9s0.7-7.7,1.1-11.3s0.7-7,1.1-10.2C611.8,70.3,612.1,67.8,612.4,66.1L612.4,66.1z
			 M617.6,145.9c1.3-0.1,2.3-0.6,3.2-1.7s1.4-2.4,1.9-4.1c0.4-1.6,0.5-3.3,0.5-5.2c-0.1-1.9-0.5-3.7-1-5.3c-0.5-1.6-1.4-3.1-2.4-4.2
			s-2.3-1.9-4-2.1c-0.1,0.8-0.2,1.9-0.4,3.4c-0.2,1.4-0.3,3.1-0.5,4.7c-0.1,1.7-0.2,3.4-0.2,5.1c0,1.7,0.1,3.3,0.2,4.7
			c0.2,1.4,0.5,2.5,0.9,3.4C616.2,145.6,616.8,146,617.6,145.9L617.6,145.9z"/>
		<path class="st3" d="M638,66.1c0.6-1.2,1.5-1.9,2.5-2.3c1-0.4,2-0.4,2.9-0.1c0.9,0.3,1.6,0.8,2.2,1.5c0.5,0.7,0.7,1.6,0.5,2.6
			l-4.4,46.8c2-0.2,4-0.5,5.9-1.3s3.8-1.5,5.6-2.6s3.5-2.3,5.1-3.6c1.6-1.4,3.2-2.6,4.5-4.1c0.7-0.4,1.4-0.3,2,0.5
			c0.6,0.6,1,1.5,1.3,2.5s0.3,2.1,0.2,3.2c-0.2,1.1-0.6,1.9-1.4,2.3c-1,0.7-2.1,1.6-3.3,2.5s-2.4,1.8-3.7,2.6
			c-1.3,0.8-2.4,1.5-3.6,2.3c-1.2,0.6-2.2,1.1-3.1,1.4c1.4,1.5,2.5,3.5,3.3,5.9c0.8,2.4,1.3,5,1.4,7.7c0.2,2.7,0.1,5.4-0.4,8.1
			c-0.5,2.7-1.2,5-2.3,7.1c-1.1,2.1-2.5,3.7-4.2,4.9s-3.8,1.6-6.2,1.3c-2.3-0.3-4.1-1.2-5.5-2.6c-1.4-1.4-2.4-3.2-3.2-5.3
			c-0.7-2.1-1.3-4.4-1.4-7c-0.3-2.5-0.4-5.1-0.3-7.7s0.2-5,0.4-7.2c0.2-2.3,0.3-4.2,0.4-5.8c0-0.9,0.1-2.6,0.3-5
			c0.2-2.5,0.5-5.4,0.6-8.8c0.3-3.4,0.5-7,0.9-10.9s0.7-7.7,1.1-11.3s0.7-7,1.1-10.2C637.2,70.3,637.6,67.8,638,66.1L638,66.1z
			 M643.1,145.9c1.3-0.1,2.3-0.6,3.2-1.7c0.8-1.1,1.4-2.4,1.9-4.1c0.4-1.6,0.5-3.3,0.5-5.2c-0.1-1.9-0.5-3.7-1-5.3
			c-0.5-1.6-1.4-3.1-2.4-4.2s-2.4-1.9-4-2.1c-0.1,0.8-0.2,1.9-0.4,3.4c-0.2,1.4-0.3,3.1-0.5,4.7s-0.2,3.4-0.2,5.1
			c0,1.7,0.1,3.3,0.2,4.7c0.1,1.4,0.5,2.5,0.9,3.4C641.6,145.6,642.3,146,643.1,145.9L643.1,145.9z"/>
		<path class="st3" d="M684,91.2c-0.1,2.3-0.5,4.7-1.3,7.1c-0.7,2.3-1.9,4.5-3.3,6.4c-1.4,1.9-3.2,3.4-5.3,4.6
			c-2.1,1.2-4.5,1.6-7.1,1.4c0.1,1.4,0.2,2.9,0.5,4.2c0.3,1.4,0.7,2.5,1.4,3.5c0.6,1,1.5,1.6,2.6,2.1c1.1,0.4,2.4,0.4,4.1-0.2
			c1.6-0.5,3.2-1.3,4.7-2.3c1.5-1.1,2.9-2.3,4.1-3.7c1.2-1.4,2.3-2.9,3.1-4.5c0.8-1.5,1.4-3.2,1.8-4.6c0.2-0.8,0.6-1.3,1.4-1.4
			s1.4-0.2,2.3,0.1c0.8,0.3,1.4,0.6,2,1.3c0.5,0.6,0.7,1.3,0.5,2c-1,2.7-2.1,5.1-3.1,7.3c-1,2.1-2.2,4-3.3,5.6
			c-1.3,1.6-2.6,3-4.1,4.1c-1.5,1.2-3.3,2.1-5.4,2.8c-2.8,1-5.3,1.4-7.7,1.3c-2.3-0.1-4.4-0.7-6.1-1.9c-1.7-1.2-3.2-2.7-4.1-4.8
			c-1-2.1-1.6-4.6-1.7-7.6c-0.1-1.4-0.1-3.2-0.1-5.1c0-2,0.2-4.1,0.4-6.3c0.2-2.3,0.6-4.4,1.2-6.7s1.3-4.3,2.1-6.3
			c0.9-2,2-3.7,3.3-5.1c1.4-1.4,3-2.5,4.9-3.2c1.6-0.5,3.2-0.8,4.7-0.6c1.5,0.2,2.9,0.6,4.1,1.4c1.2,0.8,2.2,2.1,2.9,3.6
			C683.7,87.2,684,89,684,91.2z M675,89.4c-0.6-0.5-1.3-0.5-2-0.1c-0.6,0.4-1.3,0.9-1.8,1.8c-0.5,0.8-1.1,1.8-1.4,2.9
			c-0.5,1.2-0.8,2.3-1.1,3.5c-0.3,1.2-0.5,2.3-0.6,3.4c-0.2,1.1-0.2,2-0.1,2.6c2.2-0.5,3.9-1.4,5.1-2.7s2.2-2.8,2.6-4.4
			c0.5-1.5,0.6-3,0.5-4.4C676.2,90.7,675.8,89.8,675,89.4L675,89.4z"/>
		<path class="st3" d="M712.4,91.2c-0.1,2.3-0.5,4.7-1.3,7.1c-0.7,2.3-1.9,4.5-3.3,6.4c-1.4,1.9-3.2,3.4-5.3,4.6
			c-2.1,1.2-4.5,1.6-7.1,1.4c0.1,1.4,0.2,2.9,0.5,4.2c0.3,1.4,0.7,2.5,1.4,3.5c0.6,1,1.5,1.6,2.6,2.1c1.1,0.4,2.4,0.4,4.1-0.2
			c1.6-0.5,3.2-1.3,4.7-2.3c1.5-1.1,2.9-2.3,4.1-3.7c1.2-1.4,2.3-2.9,3.1-4.5c0.8-1.5,1.4-3.2,1.8-4.6c0.2-0.8,0.6-1.3,1.4-1.4
			s1.4-0.2,2.3,0.1c0.8,0.3,1.4,0.6,2,1.3c0.5,0.6,0.7,1.3,0.5,2c-1,2.7-2.1,5.1-3.1,7.3c-1,2.1-2.2,4-3.3,5.6
			c-1.3,1.6-2.6,3-4.1,4.1c-1.5,1.2-3.3,2.1-5.4,2.8c-2.8,1-5.3,1.4-7.7,1.3c-2.3-0.1-4.4-0.7-6.1-1.9c-1.7-1.2-3.2-2.7-4.1-4.8
			c-1-2.1-1.6-4.6-1.7-7.6c-0.1-1.4-0.1-3.2-0.1-5.1c0-2,0.2-4.1,0.4-6.3c0.2-2.3,0.6-4.4,1.2-6.7s1.3-4.3,2.1-6.3
			c0.9-2,2-3.7,3.3-5.1c1.4-1.4,3-2.5,4.9-3.2c1.6-0.5,3.2-0.8,4.7-0.6c1.5,0.2,2.9,0.6,4.1,1.4c1.2,0.8,2.2,2.1,2.9,3.6
			C712,87.2,712.4,89,712.4,91.2z M703.5,89.4c-0.6-0.5-1.3-0.5-2-0.1c-0.6,0.4-1.3,0.9-1.8,1.8c-0.5,0.8-1.1,1.8-1.4,2.9
			c-0.5,1.2-0.8,2.3-1.1,3.5c-0.3,1.2-0.5,2.3-0.6,3.4c-0.2,1.1-0.2,2-0.1,2.6c2.2-0.5,3.9-1.4,5.1-2.7s2.2-2.8,2.6-4.4
			c0.5-1.5,0.6-3,0.5-4.4C704.7,90.7,704.2,89.8,703.5,89.4L703.5,89.4z"/>
	</g>
</g>
</svg>
